<svg width="20" height="20" viewBox="0 0 20 20" fill="none" xmlns="http://www.w3.org/2000/svg">
<g clip-path="url(#clip0_27_4)">
<path d="M2.5 2.5V19.375C2.49992 19.4835 2.52811 19.5902 2.58178 19.6845C2.63546 19.7789 2.71277 19.8576 2.80611 19.913C2.89946 19.9684 3.00561 19.9985 3.11413 20.0004C3.22265 20.0022 3.32979 19.9758 3.425 19.9238L10 16.3363L16.575 19.9238C16.6702 19.9758 16.7774 20.0022 16.8859 20.0004C16.9944 19.9985 17.1005 19.9684 17.1939 19.913C17.2872 19.8576 17.3645 19.7789 17.4182 19.6845C17.4719 19.5902 17.5001 19.4835 17.5 19.375V2.5C17.5 1.83696 17.2366 1.20107 16.7678 0.732233C16.2989 0.263392 15.663 0 15 0L5 0C4.33696 0 3.70107 0.263392 3.23223 0.732233C2.76339 1.20107 2.5 1.83696 2.5 2.5V2.5Z" fill="black"/>
</g>
<defs>
<clipPath id="clip0_27_4">
<rect width="20" height="20" fill="white"/>
</clipPath>
</defs>
</svg>
