<svg width="20" height="20" viewBox="0 0 20 20" fill="none" xmlns="http://www.w3.org/2000/svg">
<path d="M1.66675 7.00004C1.66665 6.40201 1.78574 5.80996 2.01708 5.2585C2.24842 4.70703 2.58736 4.2072 3.01409 3.78823C3.44082 3.36926 3.94678 3.03955 4.5024 2.81836C5.05802 2.59718 5.65216 2.48896 6.25008 2.50004C6.95755 2.49628 7.65774 2.64293 8.30424 2.93026C8.95074 3.2176 9.52879 3.63906 10.0001 4.16671C10.4714 3.63906 11.0494 3.2176 11.6959 2.93026C12.3424 2.64293 13.0426 2.49628 13.7501 2.50004C14.348 2.48896 14.9421 2.59718 15.4978 2.81836C16.0534 3.03955 16.5593 3.36926 16.9861 3.78823C17.4128 4.2072 17.7517 4.70703 17.9831 5.2585C18.2144 5.80996 18.3335 6.40201 18.3334 7.00004C18.3334 11.4634 13.0176 14.8334 10.0001 17.5C6.98925 14.8109 1.66675 11.4667 1.66675 7.00004Z" fill="#FF2E53"/>
</svg>
